<?xml version="1.0" encoding="UTF-8" standalone="no"?>
<!-- Generator: Adobe Illustrator 16.0.0, SVG Export Plug-In . SVG Version: 6.00 Build 0)  -->

<svg
   xmlns:dc="http://purl.org/dc/elements/1.1/"
   xmlns:cc="http://creativecommons.org/ns#"
   xmlns:rdf="http://www.w3.org/1999/02/22-rdf-syntax-ns#"
   xmlns:svg="http://www.w3.org/2000/svg"
   xmlns="http://www.w3.org/2000/svg"
   xmlns:xlink="http://www.w3.org/1999/xlink"
   xmlns:sodipodi="http://sodipodi.sourceforge.net/DTD/sodipodi-0.dtd"
   xmlns:inkscape="http://www.inkscape.org/namespaces/inkscape"
   version="1.1"
   id="Layer_1"
   x="0px"
   y="0px"
   width="409.384"
   height="61.236"
   viewBox="0 0 409.384 61.236003"
   enable-background="new 0 0 478 141.333"
   xml:space="preserve"
   inkscape:version="0.91 r13725"
   sodipodi:docname="logo-drawbotics-white.svg"><metadata
     id="metadata76"><rdf:RDF><cc:Work
         rdf:about=""><dc:format>image/svg+xml</dc:format><dc:type
           rdf:resource="http://purl.org/dc/dcmitype/StillImage" /><dc:title></dc:title></cc:Work></rdf:RDF></metadata><defs
     id="defs74" /><sodipodi:namedview
     pagecolor="#ffffff"
     bordercolor="#666666"
     borderopacity="1"
     objecttolerance="10"
     gridtolerance="10"
     guidetolerance="10"
     inkscape:pageopacity="0"
     inkscape:pageshadow="2"
     inkscape:window-width="640"
     inkscape:window-height="480"
     id="namedview72"
     showgrid="false"
     fit-margin-top="0"
     fit-margin-left="0"
     fit-margin-right="0"
     fit-margin-bottom="0"
     inkscape:zoom="0.76987448"
     inkscape:cx="215.074"
     inkscape:cy="27.597504"
     inkscape:window-x="0"
     inkscape:window-y="27"
     inkscape:window-maximized="0"
     inkscape:current-layer="Layer_1" /><g
     id="g3"
     transform="translate(-23.926001,-37.028)"><defs
       id="defs5"><polygon
         id="SVGID_1_"
         points="23.926,86.881 89.302,98.264 52.145,79.166 " /></defs><clipPath
       id="SVGID_2_"><use
         xlink:href="#SVGID_1_"
         overflow="visible"
         id="use9"
         style="overflow:visible"
         x="0"
         y="0"
         width="100%"
         height="100%" /></clipPath><linearGradient
       id="SVGID_3_"
       gradientUnits="userSpaceOnUse"
       x1="-0.0009765625"
       y1="141.33299"
       x2="0.99900001"
       y2="141.33299"
       gradientTransform="matrix(65.376,0,0,65.376,23.9375,-9151.0791)"><stop
         offset="0"
         style="stop-color:#024D70"
         id="stop12" /><stop
         offset="1"
         style="stop-color:#0A98A8"
         id="stop14" /></linearGradient><rect
       x="23.926001"
       y="79.166"
       clip-path="url(#SVGID_2_)"
       width="65.375999"
       height="19.098"
       id="rect16"
       style="fill:url(#SVGID_3_)" /></g><g
     id="g18"
     transform="translate(-23.926001,-37.028)"><defs
       id="defs20"><polygon
         id="SVGID_4_"
         points="54.21,77.618 89.302,98.264 66.254,37.028 " /></defs><clipPath
       id="SVGID_5_"><use
         xlink:href="#SVGID_4_"
         overflow="visible"
         id="use24"
         style="overflow:visible"
         x="0"
         y="0"
         width="100%"
         height="100%" /></clipPath><linearGradient
       id="SVGID_6_"
       gradientUnits="userSpaceOnUse"
       x1="-0.00048828119"
       y1="141.33299"
       x2="0.99949998"
       y2="141.33299"
       gradientTransform="matrix(35.092,0,0,35.092,54.2188,-4892.0122)"><stop
         offset="0"
         style="stop-color:#2183BA"
         id="stop27" /><stop
         offset="1"
         style="stop-color:#71CBCF"
         id="stop29" /></linearGradient><rect
       x="54.209999"
       y="37.028"
       clip-path="url(#SVGID_5_)"
       width="35.091999"
       height="61.236"
       id="rect31"
       style="fill:url(#SVGID_6_)" /></g><g
     id="g33"
     transform="translate(-23.926001,-37.028)"><defs
       id="defs35"><polygon
         id="SVGID_7_"
         points="23.926,86.881 51.202,76.863 66.254,37.028 " /></defs><clipPath
       id="SVGID_8_"><use
         xlink:href="#SVGID_7_"
         overflow="visible"
         id="use39"
         style="overflow:visible"
         x="0"
         y="0"
         width="100%"
         height="100%" /></clipPath><linearGradient
       id="SVGID_9_"
       gradientUnits="userSpaceOnUse"
       x1="-0.00048828119"
       y1="141.33299"
       x2="0.99949998"
       y2="141.33299"
       gradientTransform="matrix(42.328,0,0,42.328,23.9375,-5920.3857)"><stop
         offset="0"
         style="stop-color:#52C2B6"
         id="stop42" /><stop
         offset="1"
         style="stop-color:#A7DEEC"
         id="stop44" /></linearGradient><rect
       x="23.926001"
       y="37.028"
       clip-path="url(#SVGID_8_)"
       width="42.327999"
       height="49.853001"
       id="rect46"
       style="fill:url(#SVGID_9_)" /></g><g
     id="g48"
     transform="translate(-23.926001,-37.028)"><path
       d="m 110.014,60.661 c 0,-0.426 0.341,-0.81 0.768,-0.81 l 9.55,0 c 8.228,0 14.964,6.693 14.964,14.879 0,8.271 -6.736,14.964 -14.964,14.964 l -9.55,0 c -0.427,0 -0.768,-0.384 -0.768,-0.81 l 0,-28.223 z m 9.634,26.092 c 6.992,0 12.065,-4.988 12.065,-12.022 0,-6.992 -5.073,-11.98 -12.065,-11.98 l -6.395,0 0,24.003 6.395,0 z"
       id="path50"
       inkscape:connector-curvature="0"
       style="fill:#ffffff" /><path
       d="m 148.219,60.661 c 0,-0.426 0.341,-0.81 0.81,-0.81 l 11.042,0 c 5.116,0 9.294,4.008 9.294,9.081 0,3.922 -2.601,7.205 -6.31,8.697 l 5.84,10.829 c 0.299,0.555 0,1.236 -0.725,1.236 l -2.174,0 c -0.384,0 -0.597,-0.213 -0.682,-0.384 l -5.67,-11.298 -8.143,0 0,10.872 c 0,0.426 -0.384,0.81 -0.81,0.81 l -1.663,0 c -0.469,0 -0.81,-0.384 -0.81,-0.81 l 0,-28.223 z m 11.639,14.538 c 3.283,0 6.139,-2.729 6.139,-6.225 0,-3.24 -2.856,-6.011 -6.139,-6.011 l -8.271,0 0,12.236 8.271,0 z"
       id="path52"
       inkscape:connector-curvature="0"
       style="fill:#ffffff" /><path
       d="m 178.708,88.586 12.96,-28.692 c 0.128,-0.256 0.341,-0.469 0.725,-0.469 l 0.426,0 c 0.384,0 0.597,0.213 0.725,0.469 l 12.875,28.692 c 0.256,0.554 -0.085,1.108 -0.725,1.108 l -1.706,0 c -0.384,0 -0.639,-0.256 -0.725,-0.469 l -3.155,-7.035 -15.135,0 -3.112,7.035 c -0.085,0.213 -0.341,0.469 -0.725,0.469 l -1.706,0 c -0.637,0 -0.978,-0.554 -0.722,-1.108 z m 20.25,-9.038 c -2.089,-4.647 -4.135,-9.337 -6.224,-13.984 l -0.341,0 -6.224,13.984 12.789,0 z"
       id="path54"
       inkscape:connector-curvature="0"
       style="fill:#ffffff" /><path
       d="m 213.587,60.875 c -0.171,-0.597 0.17,-1.023 0.767,-1.023 l 1.791,0 c 0.341,0 0.682,0.298 0.768,0.597 l 5.926,22.084 0.171,0 7.12,-22.638 c 0.085,-0.256 0.341,-0.469 0.725,-0.469 l 0.768,0 c 0.341,0 0.639,0.213 0.725,0.469 l 7.248,22.638 0.171,0 5.798,-22.084 c 0.085,-0.299 0.427,-0.597 0.768,-0.597 l 1.79,0 c 0.598,0 0.938,0.426 0.768,1.023 l -8.058,28.649 c -0.085,0.342 -0.426,0.598 -0.768,0.598 l -0.682,0 c -0.299,0 -0.597,-0.214 -0.725,-0.47 l -7.375,-23.064 -0.213,0 -7.248,23.064 c -0.128,0.256 -0.427,0.47 -0.725,0.47 l -0.682,0 c -0.341,0 -0.682,-0.256 -0.767,-0.598 l -8.061,-28.649 z"
       id="path56"
       inkscape:connector-curvature="0"
       style="fill:#ffffff" /></g><g
     id="g58"
     transform="translate(-23.926001,-37.028)"><path
       d="m 261.174,60.661 c 0,-0.426 0.341,-0.81 0.81,-0.81 l 9.337,0 c 5.201,0 8.74,3.368 8.74,7.845 0,3.283 -2.175,5.67 -4.179,6.821 2.26,0.938 5.116,3.027 5.116,6.949 0,4.775 -3.794,8.229 -9.294,8.229 l -9.721,0 c -0.469,0 -0.81,-0.384 -0.81,-0.81 l 0,-28.224 z m 10.871,26.177 c 3.112,0 5.372,-2.345 5.372,-5.414 0,-3.027 -2.771,-5.244 -6.097,-5.244 l -7.034,0 0,10.658 7.759,0 z m -0.725,-13.6 c 3.283,0 5.116,-2.345 5.116,-5.33 0,-3.069 -1.833,-5.116 -5.116,-5.116 l -6.949,0 0,10.445 6.949,0 z"
       id="path60"
       inkscape:connector-curvature="0"
       style="fill:#8cd3d6" /><path
       d="m 307.351,59.425 c 8.526,0 15.348,6.864 15.348,15.391 0,8.526 -6.821,15.306 -15.348,15.306 -8.527,0 -15.306,-6.779 -15.306,-15.306 0,-8.527 6.779,-15.391 15.306,-15.391 z m 0,27.712 c 6.778,0 12.363,-5.543 12.363,-12.321 0,-6.779 -5.585,-12.406 -12.363,-12.406 -6.778,0 -12.321,5.627 -12.321,12.406 -10e-4,6.778 5.542,12.321 12.321,12.321 z"
       id="path62"
       inkscape:connector-curvature="0"
       style="fill:#8cd3d6" /><path
       d="m 339.29,62.708 -7.418,0 c -0.47,0 -0.811,-0.384 -0.811,-0.81 l 0,-1.236 c 0,-0.426 0.341,-0.81 0.811,-0.81 l 18.076,0 c 0.469,0 0.81,0.384 0.81,0.81 l 0,1.236 c 0,0.426 -0.341,0.81 -0.81,0.81 l -7.418,0 0,26.177 c 0,0.426 -0.384,0.81 -0.811,0.81 l -1.62,0 c -0.426,0 -0.81,-0.384 -0.81,-0.81 l 0,-26.177 z"
       id="path64"
       inkscape:connector-curvature="0"
       style="fill:#8cd3d6" /><path
       d="m 361.848,60.661 c 0,-0.426 0.384,-0.81 0.81,-0.81 l 1.706,0 c 0.426,0 0.81,0.384 0.81,0.81 l 0,28.224 c 0,0.426 -0.384,0.81 -0.81,0.81 l -1.706,0 c -0.426,0 -0.81,-0.384 -0.81,-0.81 l 0,-28.224 z"
       id="path66"
       inkscape:connector-curvature="0"
       style="fill:#8cd3d6" /><path
       d="m 393.441,59.425 c 4.307,0 7.419,1.492 10.317,3.965 0.341,0.341 0.384,0.853 0.043,1.194 l -1.151,1.151 c -0.341,0.427 -0.682,0.384 -1.108,-0.042 -2.217,-1.918 -5.244,-3.197 -8.143,-3.197 -6.736,0 -11.895,5.67 -11.895,12.278 0,6.565 5.158,12.236 11.895,12.236 3.709,0 5.883,-1.492 8.143,-3.198 0.427,-0.341 0.768,-0.298 1.023,-0.128 l 1.278,1.151 c 0.342,0.256 0.256,0.853 -0.042,1.151 -2.899,2.813 -6.565,4.136 -10.36,4.136 -8.526,0 -15.391,-6.779 -15.391,-15.306 10e-4,-8.527 6.865,-15.391 15.391,-15.391 z"
       id="path68"
       inkscape:connector-curvature="0"
       style="fill:#8cd3d6" /><path
       d="m 414.849,85.218 c 0.214,-0.256 0.427,-0.554 0.64,-0.81 0.427,-0.555 0.896,-0.896 1.492,-0.384 0.299,0.256 3.411,3.24 7.205,3.24 3.453,0 5.713,-2.175 5.713,-4.69 0,-2.941 -2.558,-4.689 -7.461,-6.735 -4.689,-2.047 -7.503,-3.965 -7.503,-8.825 0,-2.899 2.302,-7.589 9.081,-7.589 4.178,0 7.29,2.174 7.29,2.174 0.256,0.128 0.768,0.64 0.256,1.45 -0.171,0.256 -0.342,0.554 -0.512,0.81 -0.384,0.597 -0.811,0.767 -1.492,0.383 -0.299,-0.17 -2.984,-1.961 -5.585,-1.961 -4.52,0 -5.884,2.899 -5.884,4.689 0,2.856 2.175,4.52 5.756,6.012 5.755,2.345 9.465,4.519 9.465,9.464 0,4.435 -4.221,7.675 -9.209,7.675 -5.031,0 -8.441,-2.942 -8.996,-3.454 -0.341,-0.298 -0.767,-0.639 -0.256,-1.449 z"
       id="path70"
       inkscape:connector-curvature="0"
       style="fill:#8cd3d6" /></g></svg>